<?xml version="1.0" encoding="UTF-8"?><svg id="Layer_2" xmlns="http://www.w3.org/2000/svg" viewBox="0 0 1920.25 1080.25"><defs><style>.cls-1{fill:none;stroke:#666;stroke-miterlimit:10;stroke-width:.25px;}</style></defs><line class="cls-1" x1="41.79" y1=".13" x2="41.79" y2="1080.12"/><line class="cls-1" x1="84.46" y1=".13" x2="84.46" y2="1080.12"/><line class="cls-1" x1="127.13" y1=".13" x2="127.13" y2="1080.12"/><line class="cls-1" x1="169.8" y1=".13" x2="169.8" y2="1080.12"/><line class="cls-1" x1="212.47" y1=".13" x2="212.47" y2="1080.12"/><line class="cls-1" x1="255.14" y1=".13" x2="255.14" y2="1080.12"/><line class="cls-1" x1="297.82" y1=".13" x2="297.82" y2="1080.12"/><line class="cls-1" x1="340.49" y1=".13" x2="340.49" y2="1080.12"/><line class="cls-1" x1="383.16" y1=".13" x2="383.16" y2="1080.12"/><line class="cls-1" x1="425.83" y1=".13" x2="425.83" y2="1080.12"/><line class="cls-1" x1="468.5" y1=".13" x2="468.5" y2="1080.12"/><line class="cls-1" x1="511.17" y1=".13" x2="511.17" y2="1080.12"/><line class="cls-1" x1="553.84" y1=".13" x2="553.84" y2="1080.12"/><line class="cls-1" x1="596.51" y1=".13" x2="596.51" y2="1080.12"/><line class="cls-1" x1="639.18" y1=".13" x2="639.18" y2="1080.12"/><line class="cls-1" x1="681.85" y1=".13" x2="681.85" y2="1080.12"/><line class="cls-1" x1="724.52" y1=".13" x2="724.52" y2="1080.12"/><line class="cls-1" x1="767.19" y1=".13" x2="767.19" y2="1080.12"/><line class="cls-1" x1="809.86" y1=".13" x2="809.86" y2="1080.12"/><line class="cls-1" x1="852.53" y1=".13" x2="852.53" y2="1080.12"/><line class="cls-1" x1="895.2" y1=".13" x2="895.2" y2="1080.12"/><line class="cls-1" x1="937.87" y1=".13" x2="937.87" y2="1080.12"/><line class="cls-1" x1="980.54" y1=".13" x2="980.54" y2="1080.12"/><line class="cls-1" x1="1023.21" y1=".13" x2="1023.21" y2="1080.12"/><line class="cls-1" x1="1065.88" y1=".13" x2="1065.88" y2="1080.12"/><line class="cls-1" x1="1108.56" y1=".13" x2="1108.56" y2="1080.12"/><line class="cls-1" x1="1151.23" y1=".13" x2="1151.23" y2="1080.12"/><line class="cls-1" x1="1193.9" y1=".13" x2="1193.9" y2="1080.12"/><line class="cls-1" x1="1236.57" y1=".13" x2="1236.57" y2="1080.12"/><line class="cls-1" x1="1279.24" y1=".13" x2="1279.24" y2="1080.12"/><line class="cls-1" x1="1321.91" y1=".13" x2="1321.91" y2="1080.12"/><line class="cls-1" x1="1364.58" y1=".13" x2="1364.58" y2="1080.12"/><line class="cls-1" x1="1407.25" y1=".13" x2="1407.25" y2="1080.12"/><line class="cls-1" x1="1449.92" y1=".13" x2="1449.92" y2="1080.12"/><line class="cls-1" x1="1492.59" y1=".13" x2="1492.59" y2="1080.12"/><line class="cls-1" x1="1535.26" y1=".13" x2="1535.26" y2="1080.12"/><line class="cls-1" x1="1577.93" y1=".13" x2="1577.93" y2="1080.12"/><line class="cls-1" x1="1620.6" y1=".13" x2="1620.6" y2="1080.12"/><line class="cls-1" x1="1663.27" y1=".13" x2="1663.27" y2="1080.12"/><line class="cls-1" x1="1705.94" y1=".13" x2="1705.94" y2="1080.12"/><line class="cls-1" x1="1748.61" y1=".13" x2="1748.61" y2="1080.12"/><line class="cls-1" x1="1920.12" y1=".12" x2="1920.12" y2="1080.12"/><line class="cls-1" x1=".12" y1=".12" x2=".12" y2="1080.12"/><line class="cls-1" x1="1791.28" y1=".13" x2="1791.28" y2="1080.12"/><line class="cls-1" x1="1833.95" y1=".13" x2="1833.95" y2="1080.12"/><line class="cls-1" x1="1876.62" y1=".12" x2="1876.62" y2="1080.12"/><line class="cls-1" x1="1920.12" y1="43.36" x2=".13" y2="43.36"/><line class="cls-1" x1="1920.12" y1=".12" x2=".13" y2=".12"/><line class="cls-1" x1="1920.12" y1="1080.12" x2=".13" y2="1080.12"/><line class="cls-1" x1="1920.12" y1="86.59" x2=".13" y2="86.59"/><line class="cls-1" x1="1920.12" y1="129.81" x2=".13" y2="129.81"/><line class="cls-1" x1="1920.12" y1="173.03" x2=".13" y2="173.03"/><line class="cls-1" x1="1920.12" y1="216.25" x2=".13" y2="216.25"/><line class="cls-1" x1="1920.12" y1="259.47" x2=".13" y2="259.47"/><line class="cls-1" x1="1920.12" y1="302.69" x2=".13" y2="302.69"/><line class="cls-1" x1="1920.12" y1="345.91" x2=".13" y2="345.91"/><line class="cls-1" x1="1920.12" y1="389.13" x2=".13" y2="389.13"/><line class="cls-1" x1="1920.12" y1="432.35" x2=".13" y2="432.35"/><line class="cls-1" x1="1920.12" y1="475.57" x2=".13" y2="475.57"/><line class="cls-1" x1="1920.12" y1="518.79" x2=".13" y2="518.79"/><line class="cls-1" x1="1920.12" y1="562.01" x2=".13" y2="562.01"/><line class="cls-1" x1="1920.12" y1="605.23" x2=".13" y2="605.23"/><line class="cls-1" x1="1920.12" y1="648.45" x2=".13" y2="648.45"/><line class="cls-1" x1="1920.12" y1="691.67" x2=".13" y2="691.67"/><line class="cls-1" x1="1920.12" y1="734.89" x2=".13" y2="734.89"/><line class="cls-1" x1="1920.12" y1="778.11" x2=".13" y2="778.11"/><line class="cls-1" x1="1920.12" y1="821.33" x2=".13" y2="821.33"/><line class="cls-1" x1="1920.12" y1="864.55" x2=".13" y2="864.55"/><line class="cls-1" x1="1920.12" y1="907.77" x2=".13" y2="907.77"/><line class="cls-1" x1="1920.12" y1="950.99" x2=".13" y2="950.99"/><line class="cls-1" x1="1920.12" y1="994.21" x2=".13" y2="994.21"/><line class="cls-1" x1="1920.12" y1="1037.43" x2=".13" y2="1037.43"/></svg>