<?xml version="1.0" encoding="UTF-8"?><svg id="Layer_2" xmlns="http://www.w3.org/2000/svg" viewBox="0 0 1920 1080"><defs><style>.cls-1{fill:none;stroke:#666;stroke-miterlimit:10;stroke-width:.5px;}</style></defs><line class="cls-1" x1="41.67" y1="0" x2="41.67" y2="1080"/><line class="cls-1" x1="84.34" y1="0" x2="84.34" y2="1080"/><line class="cls-1" x1="127.01" y1="0" x2="127.01" y2="1080"/><line class="cls-1" x1="169.68" y1="0" x2="169.68" y2="1080"/><line class="cls-1" x1="212.35" y1="0" x2="212.35" y2="1080"/><line class="cls-1" x1="255.02" y1="0" x2="255.02" y2="1080"/><line class="cls-1" x1="297.69" y1="0" x2="297.69" y2="1080"/><line class="cls-1" x1="340.36" y1="0" x2="340.36" y2="1080"/><line class="cls-1" x1="383.03" y1="0" x2="383.03" y2="1080"/><line class="cls-1" x1="425.7" y1="0" x2="425.7" y2="1080"/><line class="cls-1" x1="468.37" y1="0" x2="468.37" y2="1080"/><line class="cls-1" x1="511.04" y1="0" x2="511.04" y2="1080"/><line class="cls-1" x1="553.71" y1="0" x2="553.71" y2="1080"/><line class="cls-1" x1="596.38" y1="0" x2="596.38" y2="1080"/><line class="cls-1" x1="639.05" y1="0" x2="639.05" y2="1080"/><line class="cls-1" x1="681.72" y1="0" x2="681.72" y2="1080"/><line class="cls-1" x1="724.4" y1="0" x2="724.4" y2="1080"/><line class="cls-1" x1="767.07" y1="0" x2="767.07" y2="1080"/><line class="cls-1" x1="809.74" y1="0" x2="809.74" y2="1080"/><line class="cls-1" x1="852.41" y1="0" x2="852.41" y2="1080"/><line class="cls-1" x1="895.08" y1="0" x2="895.08" y2="1080"/><line class="cls-1" x1="937.75" y1="0" x2="937.75" y2="1080"/><line class="cls-1" x1="980.42" y1="0" x2="980.42" y2="1080"/><line class="cls-1" x1="1023.09" y1="0" x2="1023.09" y2="1080"/><line class="cls-1" x1="1065.76" y1="0" x2="1065.76" y2="1080"/><line class="cls-1" x1="1108.43" y1="0" x2="1108.43" y2="1080"/><line class="cls-1" x1="1151.1" y1="0" x2="1151.1" y2="1080"/><line class="cls-1" x1="1193.77" y1="0" x2="1193.77" y2="1080"/><line class="cls-1" x1="1236.44" y1="0" x2="1236.44" y2="1080"/><line class="cls-1" x1="1279.11" y1="0" x2="1279.11" y2="1080"/><line class="cls-1" x1="1321.78" y1="0" x2="1321.78" y2="1080"/><line class="cls-1" x1="1364.45" y1="0" x2="1364.45" y2="1080"/><line class="cls-1" x1="1407.12" y1="0" x2="1407.12" y2="1080"/><line class="cls-1" x1="1449.79" y1="0" x2="1449.79" y2="1080"/><line class="cls-1" x1="1492.46" y1="0" x2="1492.46" y2="1080"/><line class="cls-1" x1="1535.14" y1="0" x2="1535.14" y2="1080"/><line class="cls-1" x1="1577.81" y1="0" x2="1577.81" y2="1080"/><line class="cls-1" x1="1620.48" y1="0" x2="1620.48" y2="1080"/><line class="cls-1" x1="1663.15" y1="0" x2="1663.15" y2="1080"/><line class="cls-1" x1="1705.82" y1="0" x2="1705.82" y2="1080"/><line class="cls-1" x1="1748.49" y1="0" x2="1748.49" y2="1080"/><line class="cls-1" x1="1791.16" y1="0" x2="1791.16" y2="1080"/><line class="cls-1" x1="1833.83" y1="0" x2="1833.83" y2="1080"/><line class="cls-1" x1="1876.5" x2="1876.5" y2="1080"/><line class="cls-1" x1="1920" y1="43.24" y2="43.24"/><line class="cls-1" x1="1920" y1="86.46" y2="86.46"/><line class="cls-1" x1="1920" y1="129.68" y2="129.68"/><line class="cls-1" x1="1920" y1="172.9" y2="172.9"/><line class="cls-1" x1="1920" y1="216.12" y2="216.12"/><line class="cls-1" x1="1920" y1="259.34" y2="259.34"/><line class="cls-1" x1="1920" y1="302.56" y2="302.56"/><line class="cls-1" x1="1920" y1="345.78" y2="345.78"/><line class="cls-1" x1="1920" y1="389" y2="389"/><line class="cls-1" x1="1920" y1="432.22" y2="432.22"/><line class="cls-1" x1="1920" y1="475.44" y2="475.44"/><line class="cls-1" x1="1920" y1="518.66" y2="518.66"/><line class="cls-1" x1="1920" y1="561.88" y2="561.88"/><line class="cls-1" x1="1920" y1="605.1" y2="605.1"/><line class="cls-1" x1="1920" y1="648.32" y2="648.32"/><line class="cls-1" x1="1920" y1="691.54" y2="691.54"/><line class="cls-1" x1="1920" y1="734.76" y2="734.76"/><line class="cls-1" x1="1920" y1="777.98" y2="777.98"/><line class="cls-1" x1="1920" y1="821.2" y2="821.2"/><line class="cls-1" x1="1920" y1="864.42" y2="864.42"/><line class="cls-1" x1="1920" y1="907.64" y2="907.64"/><line class="cls-1" x1="1920" y1="950.86" y2="950.86"/><line class="cls-1" x1="1920" y1="994.08" y2="994.08"/><line class="cls-1" x1="1920" y1="1037.31" y2="1037.31"/></svg>